<?xml version="1.0" encoding="utf-8"?>
<!-- Generator: Adobe Illustrator 16.0.4, SVG Export Plug-In . SVG Version: 6.00 Build 0)  -->
<!DOCTYPE svg PUBLIC "-//W3C//DTD SVG 1.1//EN" "http://www.w3.org/Graphics/SVG/1.1/DTD/svg11.dtd">
<svg version="1.1" id="Capa_1" xmlns="http://www.w3.org/2000/svg" xmlns:xlink="http://www.w3.org/1999/xlink" x="0px" y="0px"
	 width="595.279px" height="236.391px" viewBox="0 314.055 595.279 236.391" enable-background="new 0 314.055 595.279 236.391"
	 xml:space="preserve">
<path fill="#C65033" d="M40.221,318.055v51.406c6.898-12.248,18.803-16.905,30.705-17.077c23.806,0,35.71,15.352,35.71,37.608
	v48.819h-8.279v-48.819c0-17.599-8.283-29.5-27.431-29.5c-17.941,0-30.361,13.802-30.361,31.568v46.751h-8.451V318.055H40.221z"/>
<path fill="#C65033" d="M115.258,396.2c0-25.532,19.319-43.988,43.297-43.988c23.982,0,45.371,14.663,42.095,47.956h-76.767
	c1.725,20.014,17.078,31.572,34.672,31.572c11.215,0,24.325-4.486,30.707-12.941l6.041,4.833
	c-8.283,10.867-23.117,16.388-36.748,16.388C134.577,440.019,115.258,423.285,115.258,396.2 M193.059,392.749
	c-0.175-21.045-13.973-32.775-34.504-32.775c-17.594,0-32.774,11.905-34.672,32.775H193.059z"/>
<polygon fill="#C65033" points="283.102,353.591 231.178,474.349 222.209,474.349 237.907,437.775 203.75,353.591 212.894,353.591 
	232.733,403.965 242.737,428.633 252.569,403.79 273.962,353.591 "/>
<path fill="#C65033" d="M407.837,460.323c0,15.354-23.275,15.354-23.275,0C384.562,444.967,407.837,444.967,407.837,460.323"/>
<path fill="#FFFFFF" d="M286.021,397.477c0-6.083,1.05-11.836,3.152-17.258c2.101-5.419,5.144-10.176,9.128-14.271
	c3.98-4.09,8.793-7.354,14.436-9.789c5.641-2.432,12.001-3.651,19.082-3.651c9.513,0,17.613,2.049,24.308,6.14
	c6.692,4.093,11.698,9.458,15.018,16.095l-21.737,6.638c-1.883-3.208-4.372-5.668-7.467-7.385
	c-3.099-1.713-6.529-2.571-10.288-2.571c-3.211,0-6.198,0.638-8.959,1.908c-2.768,1.273-5.174,3.044-7.219,5.31
	c-2.048,2.269-3.651,5.006-4.812,8.213c-1.162,3.21-1.744,6.749-1.744,10.62c0,3.873,0.607,7.412,1.827,10.62
	c1.215,3.209,2.847,5.973,4.895,8.297c2.045,2.321,4.451,4.122,7.219,5.392c2.764,1.273,5.694,1.907,8.793,1.907
	c3.982,0,7.66-0.994,11.036-2.986c3.371-1.992,5.726-4.423,7.051-7.301l21.736,6.638c-2.986,6.637-7.909,12.059-14.767,16.262
	c-6.861,4.205-15.101,6.306-24.726,6.306c-7.08,0-13.438-1.219-19.081-3.652c-5.644-2.432-10.454-5.723-14.437-9.872
	c-3.981-4.148-7.052-8.96-9.209-14.436C287.1,409.174,286.021,403.449,286.021,397.477z"/>
<g>
	<rect x="385.081" y="354.003" fill="#FFFFFF" width="22.235" height="86.946"/>
</g>
<path fill="#FFFFFF" d="M479.494,436.471c-2.985,1.326-6.636,2.653-10.949,3.982c-4.316,1.327-8.854,1.989-13.607,1.989
	c-3.098,0-6.002-0.388-8.71-1.16c-2.714-0.772-5.091-2.018-7.136-3.733c-2.049-1.714-3.681-3.925-4.896-6.638
	c-1.219-2.71-1.826-5.999-1.826-9.872v-49.946h-11.447v-17.09h11.447v-28.209h22.234v28.209h18.255v17.09h-18.255v42.479
	c0,3.098,0.803,5.285,2.408,6.554c1.603,1.273,3.567,1.907,5.89,1.907s4.589-0.386,6.803-1.161c2.212-0.772,3.982-1.437,5.311-1.99
	L479.494,436.471z"/>
<path fill="#FFFFFF" d="M492.934,457.877c1.878,0.551,3.703,0.965,5.476,1.244c1.768,0.273,3.261,0.414,4.48,0.414
	c1.436,0,2.762-0.279,3.981-0.83c1.217-0.555,2.323-1.522,3.318-2.903c0.996-1.385,1.992-3.294,2.987-5.725
	c0.995-2.436,2.046-5.477,3.151-9.128l-34.348-86.946h22.9l23.561,67.699l20.908-67.699h20.907l-36.506,104.204
	c-2.102,6.082-5.698,11.06-10.785,14.933c-5.091,3.872-11.395,5.809-18.915,5.809c-1.771,0-3.568-0.141-5.393-0.415
	c-1.825-0.276-3.732-0.745-5.725-1.41V457.877z"/>
<g>
	<path fill="#FFFFFF" d="M50.431,516.859v4.555c0,5.605-2.703,8.658-8.208,8.658h-2.603v13.163h-5.505v-35.034h8.108
		C47.729,508.201,50.431,511.254,50.431,516.859z M39.621,513.206v11.861h2.603c1.751,0,2.703-0.801,2.703-3.303v-5.255
		c0-2.503-0.951-3.304-2.703-3.304H39.621z"/>
	<path fill="#FFFFFF" d="M122.698,543.235h-5.556l-0.951-6.356h-6.756l-0.951,6.356h-5.055l5.605-35.034h8.058L122.698,543.235z
		 M110.136,532.125h5.306l-2.603-17.718h-0.101L110.136,532.125z"/>
	<path fill="#FFFFFF" d="M174.295,508.201h17.017v5.005h-5.756v30.029h-5.505v-30.029h-5.756V508.201z"/>
	<path fill="#FFFFFF" d="M251.766,522.966h7.557v5.005h-7.557v10.26h9.509v5.005h-15.015v-35.034h15.015v5.005h-9.509V522.966z"/>
	<path fill="#FFFFFF" d="M322.231,517.86h-0.101v25.375h-4.954v-35.034h6.906l5.556,20.971h0.1v-20.971h4.905v35.034h-5.655
		L322.231,517.86z"/>
	<path fill="#FFFFFF" d="M389.541,508.201h17.017v5.005h-5.756v30.029h-5.505v-30.029h-5.756V508.201z"/>
	<path fill="#FFFFFF" d="M467.013,522.966h7.557v5.005h-7.557v10.26h9.509v5.005h-15.015v-35.034h15.015v5.005h-9.509V522.966z"/>
	<path fill="#FFFFFF" d="M539.879,507.801c5.355,0,8.108,3.203,8.108,8.809v1.102h-5.205v-1.452c0-2.502-1.002-3.453-2.753-3.453
		c-1.752,0-2.753,0.951-2.753,3.453c0,2.553,1.102,4.454,4.705,7.607c4.604,4.054,6.056,6.957,6.056,10.961
		c0,5.605-2.803,8.809-8.208,8.809s-8.208-3.203-8.208-8.809v-2.152h5.205v2.503c0,2.502,1.101,3.403,2.853,3.403
		s2.853-0.901,2.853-3.403c0-2.553-1.101-4.455-4.704-7.607c-4.604-4.055-6.057-6.957-6.057-10.961
		C531.771,511.004,534.524,507.801,539.879,507.801z"/>
</g>
<line fill="none" stroke="#F9F9F9" stroke-miterlimit="10" x1="32.114" y1="492.319" x2="570.257" y2="492.319"/>
</svg>
